<svg id="Layer_1" data-name="Layer 1" xmlns="http://www.w3.org/2000/svg" viewBox="0 0 498.16 524.89"><defs><style>.cls-1{fill:#f2e1ce;}.cls-2{fill:#967c8f;}.cls-3{fill:#ad959d;}.cls-4{fill:#7d607f;}.cls-12,.cls-5{fill:#593767;}.cls-6{fill:#411d57;}.cls-7{fill:#fff1cf;}.cls-10,.cls-11,.cls-12,.cls-8,.cls-9{isolation:isolate;}.cls-10,.cls-11,.cls-9{font-size:48px;fill:#b3a698;}.cls-10,.cls-11,.cls-12,.cls-9{font-family:SourceSansPro-ExtraLight, Source Sans Pro;font-weight:200;}.cls-10{letter-spacing:-0.02em;}.cls-11{letter-spacing:-0.02em;}.cls-12{font-size:69.06px;}.cls-13{letter-spacing:-0.01em;}.cls-14{letter-spacing:0em;}</style></defs><title>logo</title><path class="cls-1" d="M138,214.31c10.88,14.84,52.55,10.82,55.86,11.51l.56.11c2.9.6,2.9.61,2.91.6C199.21,225.35,72.94,36.92,54.6,2.28,54.27,1.66,53.35-.09,53.13,0c-2,.83,59,151.49,78.34,199.22l3,7.35c0,.12,1.34,3.31,1.38,3.42A15,15,0,0,0,138,214.31Z"/><path class="cls-2" d="M244.8,233.9l-64.08,19.6L0,308.8,116.78,207.41Z"/><rect class="cls-3" x="195.35" y="293.41" width="3.88" height="80.83" transform="translate(-186.11 275.8) rotate(-50.81)"/><path class="cls-3" d="M179.1,251.61,130.15,265.9h0l-.87,15.81h0c.45-.22,94.85,71.84,102.07,80.14.21.25.75.87,1,.76C234.13,361.65,209.51,311.7,179.1,251.61Z"/><path class="cls-4" d="M177.29,251.33c.53,1.09,53.39,109.56,53.4,109.57l.43.88c.78,1.62.78,1.62.79,1.62,1.56.76,34.18-62.25,47.39-87.26l1.58-3L244.07,231.7Z"/><polyline class="cls-4" points="129.52 281.09 131.03 281.93 235.25 364.4 145.87 331.19 129.52 301.74"/><polygon class="cls-5" points="145.66 331.07 180.4 397.73 237.08 381.73 230.53 362.07 145.66 331.07"/><polygon class="cls-5" points="280.24 273.85 229.63 364.4 314.32 315.51 280.24 273.85"/><path class="cls-6" d="M317.74,414.37a1.33,1.33,0,0,1,.1-.28,1.74,1.74,0,0,1,.31-.66h0a1.65,1.65,0,0,1,.53-.77,1.7,1.7,0,0,1,.34-.5,1.74,1.74,0,0,1,.26-.53,1.91,1.91,0,0,1,.28-.4l-6.24-98-82.81,49,6.52,20,80.53,32.42A1.67,1.67,0,0,1,317.74,414.37Z"/><polygon class="cls-3" points="247.99 237.57 285.99 216.23 312.32 314.23 247.99 237.57"/><path class="cls-7" d="M354.7,264.49l-42.11,49.74-26.76-99.48"/><path class="cls-5" d="M272.88,191.2l-28.07,42.7,3.73,4.66,37.67-22.33,64,49.33s-1-46.33,0-44.33l1,2"/><path class="cls-3" d="M272.76,191.13C395.06,167.9,397.36,164,396.21,165.9c-1.67,2.89-51.33,65.36-45.88,58.56Z"/><rect class="cls-5" x="349.51" y="224.15" width="0.8" height="36.18"/><path class="cls-5" d="M440.72,208l-6.67-3.67-103,183C348.39,393,347.39,393,347.39,393Z"/><path class="cls-1" d="M318.81,412.35h0l134.9-242H419.38c-85,106-107,142-107,142L317,415.46l.66-1.17A4.78,4.78,0,0,1,318.81,412.35Z"/><path class="cls-2" d="M453.12,170l-19.23,35.69h0l64.27,26Z"/><rect class="cls-3" x="349.53" y="223.29" width="0.41" height="1.42" transform="translate(7.59 459.43) rotate(-67.17)"/><rect class="cls-2" x="99.99" y="251.64" width="147.64" height="3.77" transform="translate(-65.82 61.01) rotate(-16.79)"/><g class="cls-8"><text class="cls-9" transform="translate(108.6 511.06) scale(1.04 1)">//24 hr </text><text class="cls-10" transform="translate(252.96 511.06) scale(1.04 1)">s</text><text class="cls-11" transform="translate(271.93 511.06) scale(1.04 1)">t</text><text class="cls-9" transform="translate(285.91 511.06) scale(1.04 1)">artup</text></g><text class="cls-12" transform="translate(68.81 464.95) scale(0.96 1)">Ena<tspan class="cls-13" x="105.11" y="0">c</tspan><tspan class="cls-14" x="135.22" y="0">tusHacks</tspan></text></svg>