<svg id="Layer_1" data-name="Layer 1" xmlns="http://www.w3.org/2000/svg" viewBox="0 0 865.5 561.53"><defs><style>.cls-1{fill:#f2e1ce;}.cls-2{fill:#967c8f;}.cls-3{fill:#ad959d;}.cls-4{fill:#7d607f;}.cls-5{fill:#593767;}.cls-6{fill:#411d57;}.cls-7{fill:#fff1cf;}</style></defs><title>Artboard 1-no-text</title><path class="cls-1" d="M308,214.31c10.88,14.84,52.55,10.82,55.86,11.51l.56.11c2.9.6,2.9.61,2.91.6C369.21,225.35,242.94,36.92,224.6,2.28c-.33-.62-1.25-2.37-1.47-2.28-2,.83,59,151.49,78.34,199.22l3,7.35c0,.12,1.34,3.31,1.38,3.42A15.16,15.16,0,0,0,308,214.31Z"/><path class="cls-2" d="M414.8,233.9l-64.08,19.6L170,308.8,286.78,207.41Z"/><rect class="cls-3" x="365.35" y="293.41" width="3.88" height="80.83" transform="translate(-123.53 407.55) rotate(-50.81)"/><path class="cls-3" d="M349.1,251.61l-49,14.29h0l-.87,15.81h0c.45-.22,94.85,71.84,102.07,80.14.21.25.75.87,1,.76C404.13,361.65,379.51,311.7,349.1,251.61Z"/><path class="cls-4" d="M347.29,251.33c.53,1.09,53.39,109.56,53.4,109.57l.43.88c.78,1.62.78,1.62.79,1.62,1.56.76,34.18-62.25,47.39-87.26l1.58-3L414.07,231.7Z"/><polyline class="cls-4" points="299.52 281.09 301.03 281.93 405.25 364.4 315.87 331.19 299.52 301.74"/><polygon class="cls-5" points="315.66 331.07 350.4 397.73 407.08 381.73 400.53 362.07 315.66 331.07"/><polygon class="cls-5" points="450.24 273.85 399.63 364.4 484.32 315.51 450.24 273.85"/><path class="cls-6" d="M487.74,414.36a1.25,1.25,0,0,1,.1-.27,1.74,1.74,0,0,1,.31-.66h0a1.73,1.73,0,0,1,.53-.78,1.8,1.8,0,0,1,.34-.49,1.74,1.74,0,0,1,.26-.53,1.91,1.91,0,0,1,.28-.4l-6.24-98-82.81,49,6.52,20,80.53,32.42A1.75,1.75,0,0,1,487.74,414.36Z"/><polygon class="cls-3" points="417.99 237.57 455.99 216.23 482.32 314.23 417.99 237.57"/><path class="cls-7" d="M524.7,264.49l-42.11,49.74-26.76-99.48"/><path class="cls-5" d="M442.88,191.2l-28.07,42.7,3.73,4.66,37.67-22.33,64,49.33s-1-46.33,0-44.33l1,2"/><path class="cls-3" d="M442.76,191.13C565.06,167.9,567.36,164,566.21,165.9c-1.67,2.89-51.33,65.36-45.88,58.56Z"/><rect class="cls-5" x="519.51" y="224.15" width="0.8" height="36.18"/><path class="cls-5" d="M610.72,208l-6.67-3.67-103,183C518.39,393,517.39,393,517.39,393Z"/><path class="cls-1" d="M488.81,412.35h0l134.9-242H589.38c-85,106-107,142-107,142L487,415.46l.66-1.17A4.71,4.71,0,0,1,488.81,412.35Z"/><path class="cls-2" d="M623.12,170l-19.23,35.69h0l64.27,26Z"/><rect class="cls-4" x="299.39" y="281.09" width="0.29" height="20.32" transform="translate(-4.44 4.63) rotate(-0.88)"/><rect class="cls-3" x="519.53" y="223.28" width="0.41" height="1.42" transform="translate(111.64 616.11) rotate(-67.17)"/><rect class="cls-4" x="416.88" y="231.96" width="0.35" height="9.44" transform="translate(-55.7 317.02) rotate(-39.22)"/><rect class="cls-2" x="269.99" y="251.64" width="147.64" height="3.77" transform="translate(-58.58 110.12) rotate(-16.79)"/></svg>
