<svg id="Layer_1" data-name="Layer 1" xmlns="http://www.w3.org/2000/svg" viewBox="0 0 498.16 423.65"><defs><style>.cls-1,.cls-12{fill:#967c8f;}.cls-2{fill:#f2e1ce;}.cls-10,.cls-12,.cls-2,.cls-3,.cls-4,.cls-6,.cls-7,.cls-8{isolation:isolate;}.cls-4{fill:#ad959d;}.cls-5,.cls-6{fill:#7d607f;}.cls-11,.cls-7{fill:#593767;}.cls-8,.cls-9{fill:#411d57;}.cls-10{fill:#fff1cf;}.cls-13{fill:#fff;}</style></defs><title>blessed</title><path class="cls-1" d="M372.8,355.88" transform="translate(-195.55 -101.28)"/><path class="cls-2" d="M332.73,315.58c10.89,14.85,52.55,10.83,55.86,11.51l.56.12,2.91.6c1.9-1.18-124.37-189.61-142.72-224.25-.33-.63-1.25-2.37-1.46-2.28-2,.83,59,151.49,78.33,199.22,1.46,3.59,3,7.35,3,7.35l1.39,3.42A14.58,14.58,0,0,0,332.73,315.58Z" transform="translate(-195.55 -101.28)"/><g class="cls-3"><path class="cls-1" d="M440.35,336.79l-64.08,19.6L195.55,411.67,312.33,310.28Z" transform="translate(-195.55 -101.28)"/></g><path class="cls-4" d="M375.16,357l-49.08,13.83h0l-1,15.8h0c.45-.21,94.19,72.71,101.33,81.07.21.25.74.88,1,.77C429.18,467.57,405,417.39,375.16,357Z" transform="translate(-195.55 -101.28)"/><path class="cls-5" d="M372.84,356.43c.53,1.09,53.39,109.56,53.4,109.57l.43.88c.78,1.62.78,1.62.79,1.62,1.56.76,34.18-62.25,47.39-87.26l1.58-3L439.62,336.8Z" transform="translate(-195.55 -101.28)"/><polyline class="cls-6" points="129.52 284.91 131.03 285.75 235.25 368.22 145.87 335.01 129.52 305.56"/><polygon class="cls-7" points="145.66 334.89 180.4 401.55 237.08 385.55 230.53 365.89 145.66 334.89"/><polygon class="cls-7" points="280.24 277.67 229.63 368.22 314.32 319.33 280.24 277.67"/><polygon class="cls-8" points="313.32 317.05 319.84 419.39 237.03 386.05 230.51 366.05 313.32 317.05"/><path class="cls-9" d="M426.67,468.33" transform="translate(-195.55 -101.28)"/><polygon class="cls-4" points="247.99 241.39 285.99 220.05 312.32 318.05 247.99 241.39"/><path class="cls-10" d="M550.25,369.59l-42.11,49.74-26.76-99.48" transform="translate(-195.55 -101.28)"/><path class="cls-7" d="M468.43,296.3,440.36,339l3.73,4.66,37.67-22.33,64,49.33s-1-46.33,0-44.33l1,2" transform="translate(-195.55 -101.28)"/><path class="cls-4" d="M467.33,296C589.73,273.28,592,269.31,590.88,271.3c-1.68,2.88-51.6,65.15-46.12,58.37Z" transform="translate(-195.55 -101.28)"/><path class="cls-11" d="M636.27,313.07l-6.67-3.67-103,183c17.34,5.67,16.34,5.67,16.34,5.67Z" transform="translate(-195.55 -101.28)"/><path class="cls-2" d="M514.36,517.45h0l134.9-242H614.93c-85,106-107,142-107,142l4.66,103.11.66-1.17A4.78,4.78,0,0,1,514.36,517.45Z" transform="translate(-195.55 -101.28)"/><path class="cls-12" d="M648.67,275.13l-19.23,35.69h0l64.27,26Z" transform="translate(-195.55 -101.28)"/><path class="cls-1" d="M640.67,315" transform="translate(-195.55 -101.28)"/><polygon class="cls-13" points="323.95 412.53 321.16 411.5 314.74 422.62 317.53 423.65 323.95 412.53"/></svg>